<svg xmlns="http://www.w3.org/2000/svg" width="215.58" height="86.605" viewBox="0 0 215.58 86.605"><defs><style>.a{fill:#d75447;stroke:#d75447;stroke-miterlimit:10;stroke-width:0.559px;}.b{fill:#f89d6c;}.c{fill:#f38b55;}</style></defs><g transform="translate(-290.498 -111.97)"><path class="a" d="M-436.557,164.295v-.29c.326,0,.906-.073,1.014-.581V141.2l-.035-.145c-.11-.617-.906-.472-1.342-.472v-.327l3.371-.326v2.175a.1.1,0,0,0,.145.072,8.231,8.231,0,0,1,5.257-2.1,7.411,7.411,0,0,1,7.105,7.649,7.387,7.387,0,0,1-7.105,7.649,6.709,6.709,0,0,1-5.076-2.32.2.2,0,0,0-.326.11v10.114c0,.616.689.725,1.014.725v.29Zm3.009-20.88v8.627a6.56,6.56,0,0,0,5.4,2.9c3.734,0,5.075-3.226,5.075-7.214s-1.341-7.214-5.075-7.214A6.649,6.649,0,0,0-433.548,143.415Zm-48.178,11.744a8.618,8.618,0,0,1-4.17-1.74l-.471-2.646h.326a6.744,6.744,0,0,0,3.371,3.625,6.405,6.405,0,0,0,3.952.145c.761-.253,3.009-1.2,3.009-3.552,0-1.85-1.921-2.5-3.443-3.118-3.047-1.269-5.764-1.74-6.526-3.589a2.906,2.906,0,0,1,.146-2.392c.978-1.776,4.423-2.32,6.67-1.668a9.789,9.789,0,0,1,2.974,1.487l.579,2.646h-.326a6.629,6.629,0,0,0-1.051-1.921,5.706,5.706,0,0,0-2.32-1.7c-2.175-.943-5.764.072-5.764,1.885,0,1.885,4.5,2.355,7.722,4.17,1.921,1.086,2.828,2.536,2.392,4.494-.634,2.978-3.453,3.936-5.994,3.936A10.207,10.207,0,0,1-481.726,155.159Zm29.653-7.612a7.521,7.521,0,0,1,7.25-7.613,6.585,6.585,0,0,1,6.453,6.853v.471h-11.419v.326c0,4.024,1.668,7.25,5.294,7.25a7.035,7.035,0,0,0,5.692-3.661c.29.145.035,0,.363.145a6.985,6.985,0,0,1-6.019,3.879C-449.462,155.2-452.073,151.788-452.073,147.547Zm2.32-.76h9.462c0-3.734-1.74-6.455-4.532-6.455C-447.577,140.332-449.535,143.16-449.753,146.786Zm-17.473.76a7.521,7.521,0,0,1,7.249-7.613,6.585,6.585,0,0,1,6.453,6.853v.471h-11.419v.326c0,4.024,1.668,7.25,5.294,7.25a7.034,7.034,0,0,0,5.692-3.661c.29.145.035,0,.363.145a6.985,6.985,0,0,1-6.019,3.879C-464.615,155.2-467.225,151.788-467.225,147.547Zm2.32-.76h9.461c0-3.734-1.74-6.455-4.532-6.455C-462.73,140.332-464.688,143.16-464.9,146.786Zm-7.832,8.41v-.435a.944.944,0,0,0,1.016-.871V139.145c-.146-.905-.943-.651-1.377-.651v-.508l3.37-.508v16.2a.981.981,0,0,0,1.051,1.088v.435Zm114.974-31.864c-1.255,2.24-4.032,5.2-10.034,5.2-7.882,0-12.631-3.941-12.631-10.121,0-14.333,18.991-12.453,22.3-12.094-.088-1.165-.088-2.329-.088-3.4,0-7.973-1.345-11.108-6.272-11.108-6,0-10.928,5.643-12.541,9.942h-.716L-376.4,95.2a21.639,21.639,0,0,1,12.362-4.39c6.988,0,10.93,4.39,10.93,11.914,0,15.678-1.255,24.726,3.314,24.726,2.6,0,2.6-2.061,2.6-2.061l.985.089s-.087,3.046-3.762,3.046C-354.9,128.528-357.046,126.827-357.763,123.332Zm-17.739-5.284c0,5.733,2.687,9.406,7.7,9.406,6.718,0,8.958-4.122,9.764-6.181-.09-1.165-.09-1.614-.09-14.244-1.183-.111-2.617-.221-4.149-.221C-368.165,106.808-375.5,108.448-375.5,118.049Zm-22.857,10.48v-1.074a2.331,2.331,0,0,0,2.508-2.151V82.415c-.36-2.24-2.331-1.613-3.406-1.613V79.548l8.331-1.254v46.472a2.424,2.424,0,0,0,2.6,2.688v1.074Zm-18,0v-.715c.806,0,2.238-.179,2.508-1.256V93.412c-.36-1.432-2.329-1.075-3.406-1.075v-.715l8.331-.807V126.2c0,1.435,1.7,1.614,2.6,1.614v.715Zm-17.015,0v-1.075a2.329,2.329,0,0,0,2.508-2.15V109.448c-.089-9.766-1.7-17.648-9.853-17.648-6.54,0-10.571,5.644-12.093,8.151a21.747,21.747,0,0,1,1.075,7.257v17.558a2.4,2.4,0,0,0,2.419,2.687h.087v1.075h-9.942v-1.075h.268a2.274,2.274,0,0,0,2.15-2.15V109.448c0-3.853-.089-7.884-1.434-11.556-1.612-4.3-5.553-6.9-10.211-5.913-4.837.9-8.51,5.2-10.93,9.227-1.612,2.777-3.225,5.555-4.837,8.242l-.09.089a68.5,68.5,0,0,1-8.51,11.109,26.967,26.967,0,0,1-8.331,6.181c-7.166,3.4-18.9,1.7-18.9-8.421,0-14.333,18.991-12.541,22.3-12.093l-.089-3.4c0-7.973-1.343-11.109-6.27-11.109-6,0-10.929,5.644-12.541,9.943h-.716l1.343-6.539a21.733,21.733,0,0,1,12.452-4.39c3.674,0,7.436,1.793,9.139,4.569,1.522,2.33,1.7,4.659,1.7,7.346,0,6.719-.179,12.184-.09,16.3a87.3,87.3,0,0,0,8.51-11.377h.09V94.936c-.358-2.24-2.329-1.7-3.4-1.7V92.069l8.331-1.256v8.152l.089-.178.088-.09a19.159,19.159,0,0,1,4.838-5.2,14.689,14.689,0,0,1,15.05-1.165,11.09,11.09,0,0,1,3.493,2.6c.448.358,2.777,3.225,2.419,3.762.9-1.343,5.465-7.884,12.451-7.884,8.6,0,14.872,4.569,14.872,16.394v17.558a2.4,2.4,0,0,0,2.507,2.687v1.075Zm-81.7-10.481c0,4.568,1.7,7.793,4.928,8.959a12.992,12.992,0,0,0,2.688.358,14.437,14.437,0,0,0,6.9-1.971,17.129,17.129,0,0,0,3.134-2.061l-.269-1.88c0-.9-.089-1.972,0-3.047V107.119a40.338,40.338,0,0,0-4.379-.267C-507.925,106.852-515.072,108.573-515.072,118.048ZM-544.2,128.439c-9.585-.716-17.021-9.138-17.021-18.812,0-10.66,8.779-19.171,18.9-18.814a17.546,17.546,0,0,1,8.69,2.419,16.373,16.373,0,0,1,3.225,1.972l1.433,6.538h-.806a13.185,13.185,0,0,0-2.6-4.3,14.722,14.722,0,0,0-6-4.658,12.592,12.592,0,0,0-8.869-.269c-6.36,2.061-8.69,9.138-8.69,17.111,0,10.48,3.941,18.274,13.975,17.827,6.181-.269,11.288-4.749,13.259-9.855h.8l-1.433,6.45a19.441,19.441,0,0,1-3.315,1.97,21.738,21.738,0,0,1-9.838,2.5Q-543.352,128.522-544.2,128.439Zm48.463-3.61,4.054-3.558c.017,3.8,1.454,6.042,3.416,6.042,2.6,0,2.6-2.061,2.6-2.061l.986.09s-.09,3.046-3.762,3.046C-492.757,128.388-494.78,127.5-495.738,124.829Zm81.619-40.375a2.792,2.792,0,0,1,2.777-2.777,2.716,2.716,0,0,1,2.687,2.777,2.638,2.638,0,0,1-2.687,2.687A2.715,2.715,0,0,1-414.119,84.454Z" transform="translate(852 34)"/><g transform="translate(343.353 171.478)"><g transform="translate(89.937 0.123)"><path class="b" d="M389.673,150.713l-.348,9.964.348,9.964.348-9.964Z" transform="translate(-379.709 -150.713)"/><path class="b" d="M383.1,157.167l9.964.348,9.964-.348" transform="translate(-383.096 -147.204)"/><path class="b" d="M403.024,157.29l-9.964-.348-9.964.348" transform="translate(-383.096 -147.326)"/><g transform="translate(5.661 5.661)"><path class="b" d="M395.369,154.38l-4.549,4.057-4.057,4.549,4.549-4.057Z" transform="translate(-386.763 -154.38)"/><path class="b" d="M395.369,162.986l-4.057-4.549-4.549-4.057,4.057,4.549Z" transform="translate(-386.763 -154.38)"/></g></g><circle class="c" cx="1.203" cy="1.203" r="1.203" transform="translate(102.362 1.253)"/><circle class="c" cx="1.203" cy="1.203" r="1.203" transform="translate(106.842 0.05)"/><circle class="c" cx="1.203" cy="1.203" r="1.203" transform="translate(106.842 4.581)"/><g transform="translate(0 0.508)"><path class="b" d="M331.413,150.962l.348,9.964-.348,9.964-.348-9.964Z" transform="translate(-321.449 -150.962)"/><path class="b" d="M344.763,157.417l-9.964.348-9.964-.348" transform="translate(-324.836 -147.453)"/><path class="b" d="M324.836,157.539l9.964-.348,9.964.348" transform="translate(-324.836 -147.575)"/><g transform="translate(5.661 5.661)"><path class="b" d="M328.5,154.629l4.549,4.057,4.057,4.549-4.549-4.057Z" transform="translate(-328.503 -154.629)"/><path class="b" d="M328.5,163.235l4.057-4.549,4.549-4.057-4.057,4.549Z" transform="translate(-328.503 -154.629)"/></g></g><circle class="c" cx="1.203" cy="1.203" r="1.203" transform="translate(5.096 1.638)"/><circle class="c" cx="1.203" cy="1.203" r="1.203" transform="translate(0.617 0.435)"/><circle class="c" cx="1.203" cy="1.203" r="1.203" transform="translate(0.617 4.966)"/></g></g></svg>
